<?xml version="1.0" encoding="UTF-8"?>
<svg id="Layer_1"
    xmlns="http://www.w3.org/2000/svg" viewBox="0 0 566.92913 146.39824">
    <defs>
        <style>.cls-1{fill:#000000;stroke-width:0px;}</style>
    </defs>
    <g id="DurinDrilling_LogoandName-logo">
        <path class="cls-1" d="M183.35102,110.22595V36.27493h11.47648l31.12215-.10361c12.57779,0,22.33563,3.13797,29.274,9.412,6.93741,6.27499,10.40683,15.48073,10.40683,27.61531,0,12.1365-3.46942,21.34225-10.40683,27.61531-6.93836,6.27499-16.6962,9.412-29.274,9.412h-42.59863ZM224.87951,49.61731h-25.96718v47.16361h25.96718c8.16967,0,14.36071-1.89564,18.57601-5.68884,4.21434-3.79128,6.32199-9.7564,6.32199-17.89345,0-8.2042-2.10765-14.18563-6.32199-17.94429-4.2153-3.7577-10.40635-5.63703-18.57601-5.63703Z"/>
        <path class="cls-1" d="M302.29612,110.74303c-7.06787,0-12.64351-.98236-16.72834-2.94707-4.08483-1.96567-7.00264-4.94727-8.75294-8.94672-1.75078-3.99849-2.62617-9.03211-2.62617-15.10084v-47.47347h15.56132v47.47347c0,5.24083,1.15024,8.80954,3.45263,10.70518,2.30048,1.8966,6.20735,2.84442,11.71919,2.84442h18.77076c5.50992,0,9.41728-.94782,11.71919-2.84442,2.30096-1.89564,3.45263-5.46435,3.45263-10.70518v-47.47347h15.56132v47.47347c0,6.06873-.87539,11.10234-2.62617,15.10084-1.7503,3.99945-4.66811,6.98105-8.75294,8.94672-4.08483,1.96471-9.66191,2.94707-16.72834,2.94707h-24.02214Z"/>
        <path class="cls-1" d="M366.874,110.22595V36.27493h58.25684c7.1969,0,12.78933,1.93113,16.77679,5.79148,3.98746,3.86227,5.98143,9.72282,5.98143,17.58359,0,6.68846-1.45914,11.92929-4.37647,15.72056-2.91781,3.7932-7.06787,6.17234-12.44924,7.13647l16.0477,27.71892h-17.7011l-14.88019-27.20184h-32.09443v27.20184h-15.56132ZM423.28316,49.72092h-40.84785v19.75455l40.84785.10361c2.85209,0,5.04033-.75787,6.5647-2.27553,1.52246-1.51574,2.28561-4.06757,2.28561-7.65355,0-3.65409-.76315-6.22222-2.28561-7.70535-1.52438-1.48217-3.71261-2.22373-6.5647-2.22373Z"/>
        <path class="cls-1" d="M458.39134,110.22595V36.27493h15.56132v73.95102h-15.56132Z"/>
        <path class="cls-1" d="M486.40046,110.22595V36.27493h15.75558l49.21178,53.16231v-53.16231h15.56132v73.95102h-15.75558l-49.21178-53.26592v53.26592h-15.56132Z"/>
    </g>
</svg>