<svg width="1203" height="540" viewBox="0 0 1203 540" fill="none" xmlns="http://www.w3.org/2000/svg">
<path d="M127.388 538.073L20.6641 350.5" stroke="white" stroke-width="4.31617"/>
<path d="M125.81 509.176L19.0859 321.604" stroke="white" stroke-width="4.31617"/>
<path d="M124.235 480.267L17.5117 292.695" stroke="white" stroke-width="4.31617"/>
<path d="M122.692 451.345L15.9688 263.772" stroke="white" stroke-width="4.31617"/>
<path d="M121.146 422.435L14.4219 234.863" stroke="white" stroke-width="4.31617"/>
<path d="M119.599 393.518L12.875 205.946" stroke="white" stroke-width="4.31617"/>
<path d="M118.083 364.598L11.3594 177.025" stroke="white" stroke-width="4.31617"/>
<path d="M116.482 335.686L9.75781 148.114" stroke="white" stroke-width="4.31617"/>
<path d="M114.966 306.785L8.24219 119.212" stroke="white" stroke-width="4.31617"/>
<path d="M113.388 277.877L6.66406 90.3047" stroke="white" stroke-width="4.31617"/>
<path d="M111.845 248.97L5.12109 61.3975" stroke="white" stroke-width="4.31617"/>
<path d="M110.298 220.058L3.57422 32.4863" stroke="white" stroke-width="4.31617"/>
<path d="M108.724 191.136L2 3.56396" stroke="white" stroke-width="4.31617"/>
<path d="M156.243 536.522L49.5195 348.95" stroke="white" stroke-width="4.31617"/>
<path d="M154.728 507.622L48.0039 320.05" stroke="white" stroke-width="4.31617"/>
<path d="M153.212 478.699L46.4883 291.127" stroke="white" stroke-width="4.31617"/>
<path d="M151.634 449.775L44.9102 262.203" stroke="white" stroke-width="4.31617"/>
<path d="M150.06 420.895L43.3359 233.323" stroke="white" stroke-width="4.31617"/>
<path d="M148.517 391.978L41.793 204.406" stroke="white" stroke-width="4.31617"/>
<path d="M146.97 363.057L40.2461 175.484" stroke="white" stroke-width="4.31617"/>
<path d="M145.423 334.147L38.6992 146.575" stroke="white" stroke-width="4.31617"/>
<path d="M143.849 305.224L37.125 117.652" stroke="white" stroke-width="4.31617"/>
<path d="M142.306 276.315L35.582 88.7432" stroke="white" stroke-width="4.31617"/>
<path d="M140.728 247.406L34.0039 59.8335" stroke="white" stroke-width="4.31617"/>
<path d="M139.185 218.483L32.4609 30.9111" stroke="white" stroke-width="4.31617"/>
<path d="M137.61 189.572L30.8867 2" stroke="white" stroke-width="4.31617"/>
<path d="M191.071 536.587L84.3477 349.015" stroke="white" stroke-width="4.31617"/>
<path d="M189.497 507.68L82.7734 320.107" stroke="white" stroke-width="4.31617"/>
<path d="M187.982 478.763L81.2578 291.19" stroke="white" stroke-width="4.31617"/>
<path d="M186.403 449.853L79.6797 262.281" stroke="white" stroke-width="4.31617"/>
<path d="M184.86 420.931L78.1367 233.358" stroke="white" stroke-width="4.31617"/>
<path d="M183.345 392.044L76.6211 204.472" stroke="white" stroke-width="4.31617"/>
<path d="M181.771 363.136L75.0469 175.564" stroke="white" stroke-width="4.31617"/>
<path d="M180.224 334.212L73.5 146.64" stroke="white" stroke-width="4.31617"/>
<path d="M178.649 305.303L71.9258 117.73" stroke="white" stroke-width="4.31617"/>
<path d="M177.103 276.378L70.3789 88.8062" stroke="white" stroke-width="4.31617"/>
<path d="M175.528 247.471L68.8047 59.8984" stroke="white" stroke-width="4.31617"/>
<path d="M173.982 218.547L67.2578 30.9746" stroke="white" stroke-width="4.31617"/>
<path d="M172.439 189.637L65.7148 2.06494" stroke="white" stroke-width="4.31617"/>
<path d="M225.868 536.652L119.145 349.08" stroke="white" stroke-width="4.31617"/>
<path d="M224.294 507.744L117.57 320.172" stroke="white" stroke-width="4.31617"/>
<path d="M222.778 478.827L116.055 291.255" stroke="white" stroke-width="4.31617"/>
<path d="M221.232 449.92L114.508 262.348" stroke="white" stroke-width="4.31617"/>
<path d="M219.657 420.996L112.934 233.424" stroke="white" stroke-width="4.31617"/>
<path d="M218.142 392.109L111.418 204.537" stroke="white" stroke-width="4.31617"/>
<path d="M216.567 363.186L109.844 175.614" stroke="white" stroke-width="4.31617"/>
<path d="M215.021 334.277L108.297 146.705" stroke="white" stroke-width="4.31617"/>
<path d="M213.446 305.368L106.723 117.795" stroke="white" stroke-width="4.31617"/>
<path d="M211.903 276.445L105.18 88.873" stroke="white" stroke-width="4.31617"/>
<path d="M210.357 247.536L103.633 59.9639" stroke="white" stroke-width="4.31617"/>
<path d="M208.782 218.613L102.059 31.041" stroke="white" stroke-width="4.31617"/>
<path d="M207.267 189.711L100.543 2.13916" stroke="white" stroke-width="4.31617"/>
<path d="M260.669 536.719L153.945 349.146" stroke="white" stroke-width="4.31617"/>
<path d="M259.153 507.815L152.43 320.243" stroke="white" stroke-width="4.31617"/>
<path d="M257.579 478.907L150.855 291.335" stroke="white" stroke-width="4.31617"/>
<path d="M256.032 449.983L149.309 262.411" stroke="white" stroke-width="4.31617"/>
<path d="M254.458 421.06L147.734 233.488" stroke="white" stroke-width="4.31617"/>
<path d="M252.911 392.151L146.188 204.579" stroke="white" stroke-width="4.31617"/>
<path d="M251.368 363.251L144.645 175.679" stroke="white" stroke-width="4.31617"/>
<path d="M249.821 334.325L143.098 146.753" stroke="white" stroke-width="4.31617"/>
<path d="M248.274 305.432L141.551 117.86" stroke="white" stroke-width="4.31617"/>
<path d="M246.7 276.508L139.977 88.936" stroke="white" stroke-width="4.31617"/>
<path d="M245.157 247.6L138.434 60.0283" stroke="white" stroke-width="4.31617"/>
<path d="M243.579 218.691L136.855 31.1191" stroke="white" stroke-width="4.31617"/>
<path d="M242.036 189.769L135.312 2.19678" stroke="white" stroke-width="4.31617"/>
<path d="M295.466 536.784L188.742 349.211" stroke="white" stroke-width="4.31617"/>
<path d="M293.95 507.882L187.227 320.31" stroke="white" stroke-width="4.31617"/>
<path d="M292.376 478.973L185.652 291.4" stroke="white" stroke-width="4.31617"/>
<path d="M290.833 450.05L184.109 262.478" stroke="white" stroke-width="4.31617"/>
<path d="M289.286 421.14L182.562 233.568" stroke="white" stroke-width="4.31617"/>
<path d="M287.712 392.218L180.988 204.646" stroke="white" stroke-width="4.31617"/>
<path d="M286.196 363.302L179.473 175.729" stroke="white" stroke-width="4.31617"/>
<path d="M284.622 334.407L177.898 146.835" stroke="white" stroke-width="4.31617"/>
<path d="M283.075 305.484L176.352 117.912" stroke="white" stroke-width="4.31617"/>
<path d="M281.47 276.588L174.746 89.0161" stroke="white" stroke-width="4.31617"/>
<path d="M279.954 247.666L173.23 60.0938" stroke="white" stroke-width="4.31617"/>
<path d="M278.411 218.758L171.688 31.186" stroke="white" stroke-width="4.31617"/>
<path d="M276.833 189.834L170.109 2.26196" stroke="white" stroke-width="4.31617"/>
<path d="M330.235 536.847L223.512 349.274" stroke="white" stroke-width="4.31617"/>
<path d="M328.72 507.925L221.996 320.353" stroke="white" stroke-width="4.31617"/>
<path d="M327.177 479.037L220.453 291.465" stroke="white" stroke-width="4.31617"/>
<path d="M325.599 450.113L218.875 262.541" stroke="white" stroke-width="4.31617"/>
<path d="M324.056 421.206L217.332 233.634" stroke="white" stroke-width="4.31617"/>
<path d="M322.482 392.281L215.758 204.709" stroke="white" stroke-width="4.31617"/>
<path d="M320.935 363.372L214.211 175.8" stroke="white" stroke-width="4.31617"/>
<path d="M319.392 334.47L212.668 146.898" stroke="white" stroke-width="4.31617"/>
<path d="M317.845 305.548L211.121 117.976" stroke="white" stroke-width="4.31617"/>
<path d="M316.298 276.639L209.574 89.0664" stroke="white" stroke-width="4.31617"/>
<path d="M314.724 247.731L208 60.1587" stroke="white" stroke-width="4.31617"/>
<path d="M313.181 218.821L206.457 31.249" stroke="white" stroke-width="4.31617"/>
<path d="M311.603 189.897L204.879 2.32495" stroke="white" stroke-width="4.31617"/>
<path d="M365.064 536.912L258.34 349.34" stroke="white" stroke-width="4.31617"/>
<path d="M363.489 507.989L256.766 320.417" stroke="white" stroke-width="4.31617"/>
<path d="M361.974 479.086L255.25 291.514" stroke="white" stroke-width="4.31617"/>
<path d="M360.399 450.178L253.676 262.606" stroke="white" stroke-width="4.31617"/>
<path d="M358.853 421.27L252.129 233.698" stroke="white" stroke-width="4.31617"/>
<path d="M357.278 392.359L250.555 204.787" stroke="white" stroke-width="4.31617"/>
<path d="M355.735 363.437L249.012 175.865" stroke="white" stroke-width="4.31617"/>
<path d="M354.22 334.522L247.496 146.95" stroke="white" stroke-width="4.31617"/>
<path d="M352.642 305.626L245.918 118.054" stroke="white" stroke-width="4.31617"/>
<path d="M399.896 536.984L293.172 349.412" stroke="white" stroke-width="4.31617"/>
<path d="M398.29 508.069L291.566 320.497" stroke="white" stroke-width="4.31617"/>
<path d="M396.774 479.152L290.051 291.58" stroke="white" stroke-width="4.31617"/>
<path d="M395.228 450.243L288.504 262.671" stroke="white" stroke-width="4.31617"/>
<path d="M393.653 421.334L286.93 233.762" stroke="white" stroke-width="4.31617"/>
<path d="M392.107 392.426L285.383 204.854" stroke="white" stroke-width="4.31617"/>
<path d="M434.665 537.042L327.941 349.47" stroke="white" stroke-width="4.31617"/>
<path d="M433.149 508.141L326.426 320.569" stroke="white" stroke-width="4.31617"/>
<path d="M431.571 479.218L324.848 291.646" stroke="white" stroke-width="4.31617"/>
<path d="M430.028 450.308L323.305 262.736" stroke="white" stroke-width="4.31617"/>
<path d="M428.454 421.386L321.73 233.813" stroke="white" stroke-width="4.31617"/>
<path d="M426.907 392.489L320.184 204.917" stroke="white" stroke-width="4.31617"/>
<path d="M469.462 537.107L362.738 349.535" stroke="white" stroke-width="4.31617"/>
<path d="M467.915 508.199L361.191 320.627" stroke="white" stroke-width="4.31617"/>
<path d="M466.372 479.283L359.648 291.71" stroke="white" stroke-width="4.31617"/>
<path d="M464.825 450.373L358.102 262.801" stroke="white" stroke-width="4.31617"/>
<path d="M463.251 421.451L356.527 233.879" stroke="white" stroke-width="4.31617"/>
<path d="M461.704 392.541L354.98 204.969" stroke="white" stroke-width="4.31617"/>
<path d="M504.232 537.172L397.508 349.6" stroke="white" stroke-width="4.31617"/>
<path d="M502.716 508.249L395.992 320.677" stroke="white" stroke-width="4.31617"/>
<path d="M501.169 479.346L394.445 291.773" stroke="white" stroke-width="4.31617"/>
<path d="M499.595 450.438L392.871 262.866" stroke="white" stroke-width="4.31617"/>
<path d="M498.052 421.529L391.328 233.957" stroke="white" stroke-width="4.31617"/>
<path d="M496.474 392.604L389.75 205.032" stroke="white" stroke-width="4.31617"/>
<path d="M539.06 537.224L432.336 349.652" stroke="white" stroke-width="4.31617"/>
<path d="M537.485 508.314L430.762 320.742" stroke="white" stroke-width="4.31617"/>
<path d="M535.97 479.428L429.246 291.855" stroke="white" stroke-width="4.31617"/>
<path d="M534.396 450.503L427.672 262.931" stroke="white" stroke-width="4.31617"/>
<path d="M532.849 421.594L426.125 234.021" stroke="white" stroke-width="4.31617"/>
<path d="M531.274 392.672L424.551 205.1" stroke="white" stroke-width="4.31617"/>
<path d="M573.86 537.287L467.137 349.715" stroke="white" stroke-width="4.31617"/>
<path d="M572.282 508.378L465.559 320.806" stroke="white" stroke-width="4.31617"/>
<path d="M570.739 479.47L464.016 291.898" stroke="white" stroke-width="4.31617"/>
<path d="M569.192 450.568L462.469 262.996" stroke="white" stroke-width="4.31617"/>
<path d="M567.649 421.661L460.926 234.088" stroke="white" stroke-width="4.31617"/>
<path d="M566.103 392.734L459.379 205.162" stroke="white" stroke-width="4.31617"/>
<path d="M564.556 363.834L457.832 176.262" stroke="white" stroke-width="4.31617"/>
<path d="M608.657 537.352L501.934 349.78" stroke="white" stroke-width="4.31617"/>
<path d="M607.083 508.444L500.359 320.872" stroke="white" stroke-width="4.31617"/>
<path d="M605.536 479.52L498.812 291.948" stroke="white" stroke-width="4.31617"/>
<path d="M604.021 450.633L497.297 263.061" stroke="white" stroke-width="4.31617"/>
<path d="M602.446 421.723L495.723 234.151" stroke="white" stroke-width="4.31617"/>
<path d="M600.903 392.814L494.18 205.242" stroke="white" stroke-width="4.31617"/>
<path d="M599.325 363.892L492.602 176.32" stroke="white" stroke-width="4.31617"/>
<path d="M597.81 334.99L491.086 147.418" stroke="white" stroke-width="4.31617"/>
<path d="M596.267 306.066L489.543 118.494" stroke="white" stroke-width="4.31617"/>
<path d="M593.146 248.236L486.422 60.6641" stroke="white" stroke-width="4.31617"/>
<path d="M591.571 219.327L484.848 31.7544" stroke="white" stroke-width="4.31617"/>
<path d="M643.458 537.432L536.734 349.86" stroke="white" stroke-width="4.31617"/>
<path d="M641.911 508.508L535.188 320.936" stroke="white" stroke-width="4.31617"/>
<path d="M640.337 479.585L533.613 292.013" stroke="white" stroke-width="4.31617"/>
<path d="M638.821 450.683L532.098 263.111" stroke="white" stroke-width="4.31617"/>
<path d="M637.247 421.791L530.523 234.219" stroke="white" stroke-width="4.31617"/>
<path d="M635.7 392.88L528.977 205.308" stroke="white" stroke-width="4.31617"/>
<path d="M634.157 363.957L527.434 176.385" stroke="white" stroke-width="4.31617"/>
<path d="M632.61 335.054L525.887 147.481" stroke="white" stroke-width="4.31617"/>
<path d="M631.064 306.131L524.34 118.559" stroke="white" stroke-width="4.31617"/>
<path d="M629.489 277.223L522.766 89.6514" stroke="white" stroke-width="4.31617"/>
<path d="M627.946 248.301L521.223 60.7285" stroke="white" stroke-width="4.31617"/>
<path d="M626.399 219.39L519.676 31.8174" stroke="white" stroke-width="4.31617"/>
<path d="M624.825 190.482L518.102 2.91016" stroke="white" stroke-width="4.31617"/>
<path d="M678.228 537.495L571.504 349.923" stroke="white" stroke-width="4.31617"/>
<path d="M676.681 508.573L569.957 321" stroke="white" stroke-width="4.31617"/>
<path d="M675.107 479.665L568.383 292.093" stroke="white" stroke-width="4.31617"/>
<path d="M673.591 450.743L566.867 263.171" stroke="white" stroke-width="4.31617"/>
<path d="M672.044 421.839L565.32 234.267" stroke="white" stroke-width="4.31617"/>
<path d="M670.47 392.946L563.746 205.374" stroke="white" stroke-width="4.31617"/>
<path d="M668.923 364.02L562.199 176.448" stroke="white" stroke-width="4.31617"/>
<path d="M667.38 335.12L560.656 147.548" stroke="white" stroke-width="4.31617"/>
<path d="M665.833 306.198L559.109 118.625" stroke="white" stroke-width="4.31617"/>
<path d="M664.29 277.288L557.566 89.7163" stroke="white" stroke-width="4.31617"/>
<path d="M662.716 248.364L555.992 60.792" stroke="white" stroke-width="4.31617"/>
<path d="M661.169 219.457L554.445 31.8848" stroke="white" stroke-width="4.31617"/>
<path d="M659.595 190.531L552.871 2.9585" stroke="white" stroke-width="4.31617"/>
<path d="M713.024 537.56L606.301 349.988" stroke="white" stroke-width="4.31617"/>
<path d="M711.482 508.652L604.758 321.08" stroke="white" stroke-width="4.31617"/>
<path d="M709.935 479.73L603.211 292.158" stroke="white" stroke-width="4.31617"/>
<path d="M708.36 450.806L601.637 263.234" stroke="white" stroke-width="4.31617"/>
<path d="M706.845 421.904L600.121 234.332" stroke="white" stroke-width="4.31617"/>
<path d="M705.271 392.98L598.547 205.408" stroke="white" stroke-width="4.31617"/>
<path d="M703.755 364.095L597.031 176.522" stroke="white" stroke-width="4.31617"/>
<path d="M702.208 335.183L595.484 147.611" stroke="white" stroke-width="4.31617"/>
<path d="M700.634 306.276L593.91 118.704" stroke="white" stroke-width="4.31617"/>
<path d="M699.087 277.351L592.363 89.7793" stroke="white" stroke-width="4.31617"/>
<path d="M697.513 248.444L590.789 60.8721" stroke="white" stroke-width="4.31617"/>
<path d="M695.966 219.52L589.242 31.9478" stroke="white" stroke-width="4.31617"/>
<path d="M694.423 190.598L587.699 3.02539" stroke="white" stroke-width="4.31617"/>
<path d="M747.853 537.625L641.129 350.053" stroke="white" stroke-width="4.31617"/>
<path d="M746.278 508.718L639.555 321.146" stroke="white" stroke-width="4.31617"/>
<path d="M744.735 479.795L638.012 292.223" stroke="white" stroke-width="4.31617"/>
<path d="M743.189 450.878L636.465 263.306" stroke="white" stroke-width="4.31617"/>
<path d="M741.642 421.969L634.918 234.397" stroke="white" stroke-width="4.31617"/>
<path d="M740.099 393.047L633.375 205.475" stroke="white" stroke-width="4.31617"/>
<path d="M782.653 537.692L675.93 350.12" stroke="white" stroke-width="4.31617"/>
<path d="M781.079 508.783L674.355 321.21" stroke="white" stroke-width="4.31617"/>
<path d="M779.532 479.858L672.809 292.286" stroke="white" stroke-width="4.31617"/>
<path d="M777.989 450.951L671.266 263.379" stroke="white" stroke-width="4.31617"/>
<path d="M776.442 422.034L669.719 234.462" stroke="white" stroke-width="4.31617"/>
<path d="M774.896 393.125L668.172 205.553" stroke="white" stroke-width="4.31617"/>
<path d="M817.45 537.757L710.727 350.185" stroke="white" stroke-width="4.31617"/>
<path d="M815.907 508.848L709.184 321.275" stroke="white" stroke-width="4.31617"/>
<path d="M814.333 479.94L707.609 292.368" stroke="white" stroke-width="4.31617"/>
<path d="M812.786 451.014L706.062 263.442" stroke="white" stroke-width="4.31617"/>
<path d="M811.239 422.099L704.516 234.527" stroke="white" stroke-width="4.31617"/>
<path d="M809.696 393.191L702.973 205.619" stroke="white" stroke-width="4.31617"/>
<path d="M852.22 537.82L745.496 350.248" stroke="white" stroke-width="4.31617"/>
<path d="M850.677 508.898L743.953 321.326" stroke="white" stroke-width="4.31617"/>
<path d="M849.103 480.003L742.379 292.431" stroke="white" stroke-width="4.31617"/>
<path d="M847.556 451.079L740.832 263.507" stroke="white" stroke-width="4.31617"/>
<path d="M846.04 422.179L739.316 234.606" stroke="white" stroke-width="4.31617"/>
<path d="M844.466 393.255L737.742 205.683" stroke="white" stroke-width="4.31617"/>
<path d="M887.021 537.885L780.297 350.313" stroke="white" stroke-width="4.31617"/>
<path d="M885.474 508.961L778.75 321.389" stroke="white" stroke-width="4.31617"/>
<path d="M883.931 480.054L777.207 292.481" stroke="white" stroke-width="4.31617"/>
<path d="M882.384 451.151L775.66 263.579" stroke="white" stroke-width="4.31617"/>
<path d="M880.841 422.244L774.117 234.672" stroke="white" stroke-width="4.31617"/>
<path d="M879.263 393.318L772.539 205.746" stroke="white" stroke-width="4.31617"/>
<path d="M877.72 364.41L770.996 176.838" stroke="white" stroke-width="4.31617"/>
<path d="M921.849 537.937L815.125 350.365" stroke="white" stroke-width="4.31617"/>
<path d="M920.274 509.028L813.551 321.456" stroke="white" stroke-width="4.31617"/>
<path d="M918.728 480.118L812.004 292.546" stroke="white" stroke-width="4.31617"/>
<path d="M917.153 451.211L810.43 263.639" stroke="white" stroke-width="4.31617"/>
<path d="M915.638 422.292L808.914 234.72" stroke="white" stroke-width="4.31617"/>
<path d="M914.091 393.385L807.367 205.812" stroke="white" stroke-width="4.31617"/>
<path d="M912.517 364.475L805.793 176.903" stroke="white" stroke-width="4.31617"/>
<path d="M956.649 538L849.926 350.428" stroke="white" stroke-width="4.31617"/>
<path d="M955.071 509.107L848.348 321.535" stroke="white" stroke-width="4.31617"/>
<path d="M953.528 480.185L846.805 292.613" stroke="white" stroke-width="4.31617"/>
<path d="M951.982 451.274L845.258 263.702" stroke="white" stroke-width="4.31617"/>
<path d="M950.407 422.349L843.684 234.777" stroke="white" stroke-width="4.31617"/>
<path d="M948.892 393.463L842.168 205.891" stroke="white" stroke-width="4.31617"/>
<path d="M947.317 364.54L840.594 176.968" stroke="white" stroke-width="4.31617"/>
<path d="M991.446 538.08L884.723 350.508" stroke="white" stroke-width="4.31617"/>
<path d="M989.903 509.158L883.18 321.585" stroke="white" stroke-width="4.31617"/>
<path d="M988.325 480.248L881.602 292.676" stroke="white" stroke-width="4.31617"/>
<path d="M986.782 451.339L880.059 263.767" stroke="white" stroke-width="4.31617"/>
<path d="M985.235 422.424L878.512 234.852" stroke="white" stroke-width="4.31617"/>
<path d="M983.692 393.515L876.969 205.942" stroke="white" stroke-width="4.31617"/>
<path d="M982.146 364.605L875.422 177.033" stroke="white" stroke-width="4.31617"/>
<path d="M980.54 335.698L873.816 148.125" stroke="white" stroke-width="4.31617"/>
<path d="M979.024 306.773L872.301 119.201" stroke="white" stroke-width="4.31617"/>
<path d="M977.45 277.864L870.727 90.292" stroke="white" stroke-width="4.31617"/>
<path d="M975.935 248.949L869.211 61.377" stroke="white" stroke-width="4.31617"/>
<path d="M974.388 220.04L867.664 32.4678" stroke="white" stroke-width="4.31617"/>
<path d="M972.786 191.13L866.062 3.55835" stroke="white" stroke-width="4.31617"/>
<path d="M1026.22 538.145L919.492 350.573" stroke="white" stroke-width="4.31617"/>
<path d="M1024.67 509.221L917.945 321.648" stroke="white" stroke-width="4.31617"/>
<path d="M1023.09 480.311L916.371 292.739" stroke="white" stroke-width="4.31617"/>
<path d="M1021.58 451.411L914.855 263.839" stroke="white" stroke-width="4.31617"/>
<path d="M1020.04 422.487L913.312 234.915" stroke="white" stroke-width="4.31617"/>
<path d="M1018.46 393.578L911.734 206.006" stroke="white" stroke-width="4.31617"/>
<path d="M1016.92 364.67L910.191 177.098" stroke="white" stroke-width="4.31617"/>
<path d="M1015.34 335.746L908.617 148.174" stroke="white" stroke-width="4.31617"/>
<path d="M1013.79 306.837L907.07 119.265" stroke="white" stroke-width="4.31617"/>
<path d="M1012.25 277.929L905.523 90.3569" stroke="white" stroke-width="4.31617"/>
<path d="M1010.7 249.013L903.98 61.4404" stroke="white" stroke-width="4.31617"/>
<path d="M1009.16 220.103L902.434 32.5308" stroke="white" stroke-width="4.31617"/>
<path d="M1007.58 191.195L900.859 3.62329" stroke="white" stroke-width="4.31617"/>
<path d="M1061.02 538.195L954.293 350.623" stroke="white" stroke-width="4.31617"/>
<path d="M1059.47 509.288L952.746 321.716" stroke="white" stroke-width="4.31617"/>
<path d="M1057.92 480.378L951.199 292.806" stroke="white" stroke-width="4.31617"/>
<path d="M1056.35 451.467L949.625 263.895" stroke="white" stroke-width="4.31617"/>
<path d="M1054.83 422.567L948.109 234.995" stroke="white" stroke-width="4.31617"/>
<path d="M1053.26 393.644L946.535 206.072" stroke="white" stroke-width="4.31617"/>
<path d="M1051.71 364.735L944.988 177.163" stroke="white" stroke-width="4.31617"/>
<path d="M1050.17 335.813L943.445 148.241" stroke="white" stroke-width="4.31617"/>
<path d="M1048.62 306.896L941.898 119.324" stroke="white" stroke-width="4.31617"/>
<path d="M1047.08 278.002L940.355 90.4297" stroke="white" stroke-width="4.31617"/>
<path d="M1045.5 249.077L938.777 61.5049" stroke="white" stroke-width="4.31617"/>
<path d="M1043.96 220.17L937.234 32.5977" stroke="white" stroke-width="4.31617"/>
<path d="M1042.38 191.26L935.66 3.68823" stroke="white" stroke-width="4.31617"/>
<path d="M1095.84 538.26L989.121 350.688" stroke="white" stroke-width="4.31617"/>
<path d="M1094.27 509.351L987.547 321.779" stroke="white" stroke-width="4.31617"/>
<path d="M1092.72 480.443L986 292.871" stroke="white" stroke-width="4.31617"/>
<path d="M1091.15 451.534L984.426 263.962" stroke="white" stroke-width="4.31617"/>
<path d="M1089.6 422.625L982.879 235.053" stroke="white" stroke-width="4.31617"/>
<path d="M1088.09 393.708L981.363 206.136" stroke="white" stroke-width="4.31617"/>
<path d="M1086.51 364.799L979.789 177.227" stroke="white" stroke-width="4.31617"/>
<path d="M1084.97 335.876L978.242 148.304" stroke="white" stroke-width="4.31617"/>
<path d="M1083.39 306.969L976.668 119.396" stroke="white" stroke-width="4.31617"/>
<path d="M1081.88 278.052L975.152 90.4795" stroke="white" stroke-width="4.31617"/>
<path d="M1080.33 249.159L973.609 61.5869" stroke="white" stroke-width="4.31617"/>
<path d="M1078.75 220.233L972.031 32.6611" stroke="white" stroke-width="4.31617"/>
<path d="M1077.21 191.324L970.488 3.75146" stroke="white" stroke-width="4.31617"/>
<path d="M1130.64 538.325L1023.92 350.753" stroke="white" stroke-width="4.31617"/>
<path d="M1129.07 509.418L1022.34 321.846" stroke="white" stroke-width="4.31617"/>
<path d="M1127.52 480.494L1020.8 292.921" stroke="white" stroke-width="4.31617"/>
<path d="M1125.98 451.599L1019.25 264.027" stroke="white" stroke-width="4.31617"/>
<path d="M1124.4 422.675L1017.68 235.103" stroke="white" stroke-width="4.31617"/>
<path d="M1122.89 393.775L1016.16 206.203" stroke="white" stroke-width="4.31617"/>
<path d="M1121.31 364.865L1014.59 177.293" stroke="white" stroke-width="4.31617"/>
<path d="M1119.77 335.958L1013.04 148.386" stroke="white" stroke-width="4.31617"/>
<path d="M1118.22 307.034L1011.5 119.461" stroke="white" stroke-width="4.31617"/>
<path d="M1116.65 278.109L1009.92 90.5371" stroke="white" stroke-width="4.31617"/>
<path d="M1115.13 249.207L1008.41 61.6353" stroke="white" stroke-width="4.31617"/>
<path d="M1113.56 220.3L1006.83 32.7275" stroke="white" stroke-width="4.31617"/>
<path d="M1112.01 191.39L1005.29 3.81836" stroke="white" stroke-width="4.31617"/>
<path d="M1165.44 538.39L1058.72 350.818" stroke="white" stroke-width="4.31617"/>
<path d="M1163.9 509.481L1057.17 321.909" stroke="white" stroke-width="4.31617"/>
<path d="M1162.32 480.557L1055.6 292.984" stroke="white" stroke-width="4.31617"/>
<path d="M1160.77 451.649L1054.05 264.077" stroke="white" stroke-width="4.31617"/>
<path d="M1159.2 422.74L1052.48 235.167" stroke="white" stroke-width="4.31617"/>
<path d="M1157.66 393.852L1050.93 206.28" stroke="white" stroke-width="4.31617"/>
<path d="M1156.14 364.931L1049.42 177.358" stroke="white" stroke-width="4.31617"/>
<path d="M1154.54 336.021L1047.81 148.449" stroke="white" stroke-width="4.31617"/>
<path d="M1153.02 307.097L1046.3 119.524" stroke="white" stroke-width="4.31617"/>
<path d="M1151.45 278.195L1044.72 90.6226" stroke="white" stroke-width="4.31617"/>
<path d="M1149.93 249.274L1043.21 61.7021" stroke="white" stroke-width="4.31617"/>
<path d="M1148.38 220.348L1041.66 32.7759" stroke="white" stroke-width="4.31617"/>
<path d="M1146.78 191.455L1040.05 3.8833" stroke="white" stroke-width="4.31617"/>
<path d="M1200.21 538.468L1093.49 350.896" stroke="white" stroke-width="4.31617"/>
<path d="M1198.67 509.546L1091.94 321.974" stroke="white" stroke-width="4.31617"/>
<path d="M1197.09 480.639L1090.37 293.066" stroke="white" stroke-width="4.31617"/>
<path d="M1195.54 451.716L1088.82 264.144" stroke="white" stroke-width="4.31617"/>
<path d="M1194 422.805L1087.28 235.232" stroke="white" stroke-width="4.31617"/>
<path d="M1192.43 393.895L1085.7 206.323" stroke="white" stroke-width="4.31617"/>
<path d="M1190.91 364.994L1084.19 177.421" stroke="white" stroke-width="4.31617"/>
<path d="M1189.33 336.086L1082.61 148.514" stroke="white" stroke-width="4.31617"/>
<path d="M1187.82 307.169L1081.09 119.597" stroke="white" stroke-width="4.31617"/>
<path d="M1186.27 278.262L1079.55 90.6895" stroke="white" stroke-width="4.31617"/>
<path d="M1184.7 249.337L1077.98 61.7651" stroke="white" stroke-width="4.31617"/>
<path d="M1183.15 220.43L1076.43 32.8574" stroke="white" stroke-width="4.31617"/>
<path d="M1181.58 191.504L1074.86 3.93164" stroke="white" stroke-width="4.31617"/>
</svg>
