<svg width="64" height="64" viewBox="0 0 64 64" fill="none" xmlns="http://www.w3.org/2000/svg">
<g clip-path="url(#clip0_227_673)">
<path fill-rule="evenodd" clip-rule="evenodd" d="M34.3647 60.4963C34.4447 60.4963 34.517 60.4487 34.5485 60.3751L35.677 57.742C34.4758 57.912 33.2482 58 32 58C30.7493 58 29.5193 57.9117 28.3157 57.741L29.4446 60.3751C29.4761 60.4487 29.5485 60.4963 29.6285 60.4963H34.3647ZM25.5491 57.1935C23.128 56.5754 20.8429 55.6175 18.7474 54.3737L18.7824 57.2421C18.7834 57.3221 18.8319 57.3939 18.9059 57.4245L23.2816 59.237C23.3555 59.2676 23.4405 59.2512 23.4978 59.1953L25.5491 57.1935ZM16.4018 52.8033C14.4283 51.3212 12.6726 49.5648 11.1912 47.5908L10.1225 50.2624C10.0928 50.3367 10.1102 50.4215 10.1668 50.4781L13.5158 53.8271C13.5724 53.8837 13.6573 53.9011 13.7315 53.8714L16.4018 52.8033ZM9.62658 45.253C8.38268 43.1576 7.42478 40.8724 6.80666 38.4514L4.80492 40.5026C4.74904 40.5599 4.73266 40.6449 4.76328 40.7188L6.57576 45.0945C6.60637 45.1685 6.6781 45.217 6.75809 45.218L9.62658 45.253ZM6.25875 35.6823C6.08821 34.4794 6 33.25 6 32C6 30.75 6.08821 29.5206 6.25875 28.3177L3.62122 29.448C3.54768 29.4796 3.5 29.5519 3.5 29.6319V34.3681C3.5 34.4481 3.54768 34.5204 3.62122 34.552L6.25875 35.6823ZM6.8066 25.5488C7.42469 23.1278 8.38257 20.8427 9.62645 18.7473L6.75798 18.7822C6.67798 18.7832 6.60626 18.8318 6.57565 18.9057L4.76316 23.2814C4.73255 23.3553 4.74893 23.4404 4.80481 23.4976L6.8066 25.5488ZM11.1951 16.4039C12.6762 14.4314 14.4312 12.6763 16.4038 11.1953L13.7377 10.1288C13.6634 10.0991 13.5786 10.1165 13.522 10.1731L10.173 13.5221C10.1164 13.5787 10.099 13.6635 10.1287 13.7378L11.1951 16.4039ZM18.7472 9.62649C20.8426 8.38261 23.1277 7.42472 25.5487 6.80662L23.4976 4.80486C23.4403 4.74898 23.3552 4.7326 23.2813 4.76322L18.9056 6.5757C18.8317 6.60632 18.7831 6.67804 18.7822 6.75804L18.7472 9.62649ZM28.3177 6.25875L29.448 3.62122C29.4796 3.54768 29.5519 3.5 29.6319 3.5H34.3681C34.4481 3.5 34.5204 3.54768 34.552 3.62122L35.6823 6.25875C34.4794 6.08821 33.25 6 32 6C30.75 6 29.5206 6.08821 28.3177 6.25875ZM38.5788 6.83953C40.9696 7.46292 43.2264 8.41807 45.2971 9.65285L45.2632 6.87113C45.2622 6.79113 45.2137 6.71941 45.1397 6.68879L40.764 4.87631C40.6901 4.8457 40.6051 4.86208 40.5478 4.91795L38.5788 6.83953ZM47.5716 11.1768C49.5337 12.6464 51.2812 14.3869 52.7587 16.3427L53.8007 13.7377C53.8304 13.6634 53.813 13.5786 53.7565 13.522L50.4074 10.173C50.3509 10.1164 50.266 10.099 50.1917 10.1287L47.5716 11.1768ZM54.3726 18.7457C55.6351 20.8721 56.6031 23.1939 57.2202 25.6549L59.3255 23.4977C59.3813 23.4404 59.3977 23.3554 59.3671 23.2815L57.5546 18.9057C57.524 18.8318 57.4523 18.7833 57.3723 18.7823L54.3726 18.7457ZM57.7409 28.3153C57.9117 29.519 58 30.7492 58 32C58 33.2481 57.9121 34.4757 57.742 35.6769L60.3754 34.5483C60.4489 34.5168 60.4966 34.4445 60.4966 34.3645V29.6282C60.4966 29.5482 60.4489 29.4759 60.3754 29.4444L57.7409 28.3153ZM57.1934 38.451C56.5757 40.8707 55.6186 43.1546 54.3758 45.249L57.2386 45.2141C57.3186 45.2131 57.3903 45.1646 57.4209 45.0907L59.2334 40.7149C59.264 40.641 59.2477 40.556 59.1918 40.4987L57.1934 38.451ZM52.8036 47.5978C51.3233 49.569 49.5694 51.3229 47.5982 52.8033L50.2589 53.8675C50.3332 53.8972 50.418 53.8798 50.4746 53.8233L53.8236 50.4742C53.8802 50.4177 53.8976 50.3328 53.8679 50.2585L52.8036 47.5978ZM45.2493 54.3756C43.1549 55.6184 40.8711 56.5756 38.4515 57.1933L40.499 59.1915C40.5563 59.2474 40.6413 59.2637 40.7153 59.2331L45.091 57.4206C45.1649 57.39 45.2134 57.3183 45.2144 57.2383L45.2493 54.3756Z" fill="white"/>
<path d="M32 55C41 53.5 45 51.5 51 45H13C19 51.5 23 53.5 32 55Z" fill="white"/>
<path d="M55 32C55 44.7025 44.7025 55 32 55C19.2975 55 9 44.7025 9 32C9 19.2975 19.2975 9 32 9C44.7025 9 55 19.2975 55 32Z" stroke="white" stroke-width="2"/>
<path d="M36.5 29.5L52.0001 20" stroke="white"/>
<path d="M11.5 20L28 29.5" stroke="white"/>
<path d="M28 29.5L37.5 35" stroke="white"/>
<path d="M28.5 25.5L36.5 30" stroke="white"/>
<path d="M26.5 35L36.6068 29.3358" stroke="white"/>
<path d="M26 35.5L31.5 38.5L39.5 42.5" stroke="white"/>
<path d="M25 42.5L31.5 38.9998L38.1067 35.3356" stroke="white"/>
<path d="M25 43L32.0002 44.9999L39.5 42.5" stroke="white"/>
<path d="M28 29.4999L35.5 25.5" stroke="white"/>
<path d="M32 55V24" stroke="white" stroke-width="2"/>
<path d="M28.9999 24L24 46" stroke="white"/>
<path d="M34.9996 24L40.5 47" stroke="white"/>
<path fill-rule="evenodd" clip-rule="evenodd" d="M37.6385 21.1976L37.6385 18.1999L37.5 18.1999V18.1938C37.6434 18.1779 37.7777 18.1317 37.8962 18.0616L40.0864 20.2514C39.4218 20.8153 38.5706 21.1659 37.6385 21.1976ZM37.5 17.6875V18.1938C37.4677 18.1974 37.4349 18.1994 37.4018 18.1999H37.5L37.5 21.7C35.0147 21.7 33 19.6852 33 17.2C33 16.5027 33.1586 15.8425 33.4417 15.2534L34.0526 15.1701C33.7413 15.6977 33.5476 16.303 33.5077 16.95H36.3885V17.2V17.45H33.5077C33.5625 18.3384 33.9073 19.1483 34.4486 19.7863L36.5269 17.7079C36.439 17.5591 36.3885 17.3854 36.3885 17.2C36.3885 17.0145 36.439 16.8408 36.5269 16.692L34.8907 15.0558L35.513 14.9709L36.8805 16.3384C36.9601 16.2914 37.0468 16.2551 37.1385 16.2314L37.1385 14.7492L37.5 14.7V16.7124C37.4641 16.7043 37.4268 16.7 37.3885 16.7C37.1124 16.7 36.8885 16.9238 36.8885 17.2C36.8885 17.4761 37.1124 17.7 37.3885 17.7C37.4268 17.7 37.4641 17.6956 37.5 17.6875ZM37.5 17.6875V16.7124C37.7225 16.7631 37.8885 16.9621 37.8885 17.2C37.8885 17.4378 37.7225 17.6368 37.5 17.6875ZM37.1385 14.7492L37.1385 13.2161C36.2383 13.2967 35.4241 13.6755 34.7952 14.2531L35.513 14.9709L37.1385 14.7492ZM34.8907 15.0558L34.0526 15.1701C34.1688 14.9731 34.3014 14.787 34.4486 14.6136L34.8907 15.0558ZM33.4417 15.2534L26.5 16.2V24.6998H37.5L37.5 21.7C39.9853 21.7 42 19.6852 42 17.2C42 14.7147 39.9853 12.7 37.5 12.7C35.712 12.7 34.1675 13.7428 33.4417 15.2534ZM37.1385 18.1999L37.3752 18.1999C37.1948 18.1975 37.0258 18.1474 36.8805 18.0615L34.7952 20.1468C35.4241 20.7244 36.2383 21.1032 37.1385 21.1838L37.1385 18.1999ZM37.8965 16.3384C37.817 16.2914 37.7303 16.2551 37.6385 16.2315L37.6385 13.2023C38.5706 13.234 39.4218 13.5847 40.0864 14.1485L37.8965 16.3384ZM38.357 16.9502C38.3334 16.8584 38.2971 16.7716 38.2501 16.692L40.4469 14.4951C41.0482 15.1499 41.4341 16.0057 41.4923 16.9501L38.357 16.9502ZM38.2499 17.7082C38.2969 17.6286 38.3333 17.542 38.3569 17.4502L41.4923 17.4501C41.434 18.3944 41.0481 19.2501 40.4469 19.9048L38.2499 17.7082ZM28.2588 17.508C28.2588 17.3613 28.1934 17.2747 28.0628 17.248V17.16C28.3507 17 28.4961 16.92 28.4988 16.92C28.5228 16.92 28.5654 16.9467 28.6267 17C28.6881 17.0507 28.7254 17.1053 28.7387 17.164C28.7441 17.1587 28.8254 17.1173 28.9827 17.04C29.1401 16.96 29.2201 16.92 29.2228 16.92C29.2761 16.92 29.3348 16.952 29.3988 17.016C29.5214 17.1387 29.5828 17.3027 29.5828 17.508V19.628C29.5828 19.652 29.4401 19.72 29.1548 19.832C28.8694 19.944 28.6921 20 28.6228 20C28.4974 20 28.3934 19.9173 28.3108 19.752C28.0174 19.9173 27.8321 20 27.7548 20C27.6774 20 27.6014 19.944 27.5268 19.832C27.4548 19.7173 27.4187 19.612 27.4187 19.516V17.508C27.4187 17.3613 27.3534 17.2747 27.2228 17.248V17.16L27.6588 16.916C27.7174 16.94 27.7721 16.98 27.8228 17.036C27.8734 17.0893 27.8988 17.1387 27.8988 17.184V19.22C27.8988 19.4733 27.9774 19.6 28.1348 19.6C28.1748 19.6 28.2161 19.592 28.2588 19.576V17.508ZM28.7428 19.26C28.7428 19.3453 28.7587 19.4253 28.7908 19.5C28.8254 19.572 28.8721 19.608 28.9308 19.608C28.9894 19.608 29.0454 19.596 29.0988 19.572V17.652C29.0988 17.5133 29.0708 17.4213 29.0148 17.376C28.9588 17.328 28.8681 17.3027 28.7428 17.3V19.26ZM36.5 24.7H27.5L27 26.2H37L36.5 24.7Z" fill="white"/>
<rect x="42.1" y="41.1" width="1.8" height="1.8" stroke="white" stroke-width="0.2"/>
<rect x="42.1" y="41.1" width="1.8" height="1.8" stroke="white" stroke-width="0.2"/>
<rect x="44.1" y="39.1" width="1.8" height="1.8" stroke="white" stroke-width="0.2"/>
<rect x="44.1" y="39.1" width="1.8" height="1.8" stroke="white" stroke-width="0.2"/>
<rect x="46.1" y="37.1" width="1.8" height="1.8" stroke="white" stroke-width="0.2"/>
<rect x="46.1" y="37.1" width="1.8" height="1.8" stroke="white" stroke-width="0.2"/>
<rect x="48.1" y="35.1" width="1.8" height="1.8" stroke="white" stroke-width="0.2"/>
<rect x="48.1" y="35.1" width="1.8" height="1.8" stroke="white" stroke-width="0.2"/>
<rect x="50.1" y="33.1" width="1.8" height="1.8" stroke="white" stroke-width="0.2"/>
<rect x="50.1" y="33.1" width="1.8" height="1.8" stroke="white" stroke-width="0.2"/>
<rect x="52.1" y="31.1" width="1.8" height="1.8" stroke="white" stroke-width="0.2"/>
<rect x="52.1" y="31.1" width="1.8" height="1.8" stroke="white" stroke-width="0.2"/>
<rect x="52.1" y="31.1" width="1.8" height="1.8" stroke="white" stroke-width="0.2"/>
<rect x="52.1" y="31.1" width="1.8" height="1.8" stroke="white" stroke-width="0.2"/>
<rect x="46" y="43" width="2" height="2" fill="white"/>
<rect x="46" y="43" width="2" height="2" fill="white"/>
<rect x="46" y="43" width="2" height="2" fill="white"/>
<rect x="48" y="41" width="2" height="2" fill="white"/>
<rect x="48" y="41" width="2" height="2" fill="white"/>
<rect x="48" y="41" width="2" height="2" fill="white"/>
<rect x="48" y="43" width="2" height="2" fill="white"/>
<rect x="48" y="43" width="2" height="2" fill="white"/>
<rect x="48" y="43" width="2" height="2" fill="white"/>
<rect x="50" y="43" width="2" height="2" fill="white"/>
<rect x="50" y="43" width="2" height="2" fill="white"/>
<rect x="50" y="43" width="2" height="2" fill="white"/>
<rect x="50" y="41" width="2" height="2" fill="white"/>
<rect x="50" y="41" width="2" height="2" fill="white"/>
<rect x="50" y="41" width="2" height="2" fill="white"/>
<rect x="52" y="37" width="2" height="2" fill="white"/>
<rect x="52" y="37" width="2" height="2" fill="white"/>
<rect x="52" y="37" width="2" height="2" fill="white"/>
<rect x="52" y="39" width="2" height="2" fill="white"/>
<rect x="52" y="39" width="2" height="2" fill="white"/>
<rect x="52" y="39" width="2" height="2" fill="white"/>
<rect x="44.1" y="41.1" width="1.8" height="1.8" stroke="white" stroke-width="0.2"/>
<rect x="40.1" y="43.1" width="1.8" height="1.8" stroke="white" stroke-width="0.2"/>
<rect x="42.1" y="43.1" width="1.8" height="1.8" stroke="white" stroke-width="0.2"/>
<rect x="44.1" y="43.1" width="1.8" height="1.8" stroke="white" stroke-width="0.2"/>
<rect x="46.1" y="39.1" width="1.8" height="1.8" stroke="white" stroke-width="0.2"/>
<rect x="46.1" y="41.1" width="1.8" height="1.8" stroke="white" stroke-width="0.2"/>
<rect x="48.1" y="39.1" width="1.8" height="1.8" stroke="white" stroke-width="0.2"/>
<rect x="50.1" y="37.1" width="1.8" height="1.8" stroke="white" stroke-width="0.2"/>
<rect x="52.1" y="35.1" width="1.8" height="1.8" stroke="white" stroke-width="0.2"/>
<rect x="48.1" y="37.1" width="1.8" height="1.8" stroke="white" stroke-width="0.2"/>
<rect x="50.1" y="35.1" width="1.8" height="1.8" stroke="white" stroke-width="0.2"/>
<rect x="52.1" y="33.1" width="1.8" height="1.8" stroke="white" stroke-width="0.2"/>
<rect x="54" y="31" width="2" height="2" fill="white"/>
<rect x="54" y="31" width="2" height="2" fill="white"/>
<rect x="54" y="31" width="2" height="2" fill="white"/>
<rect x="50" y="39" width="2" height="2" fill="white"/>
<rect x="50" y="39" width="2" height="2" fill="white"/>
<rect x="50" y="39" width="2" height="2" fill="white"/>
<path d="M16.5 31.9146C16.5 32.7431 15.8284 33.4146 15 33.4146C14.1716 33.4146 13.5 32.7431 13.5 31.9146C13.5 31.0862 14.1716 30.4146 15 30.4146C15.8284 30.4146 16.5 31.0862 16.5 31.9146Z" fill="white"/>
<path d="M13.9878 35.7534C13.9878 36.4438 13.4281 37.0034 12.7378 37.0034C12.0474 37.0034 11.4878 36.4438 11.4878 35.7534C11.4878 35.0631 12.0474 34.5034 12.7378 34.5034C13.4281 34.5034 13.9878 35.0631 13.9878 35.7534Z" fill="white"/>
<path d="M13.9878 35.7534C13.9878 36.4438 13.4281 37.0034 12.7378 37.0034C12.0474 37.0034 11.4878 36.4438 11.4878 35.7534C11.4878 35.0631 12.0474 34.5034 12.7378 34.5034C13.4281 34.5034 13.9878 35.0631 13.9878 35.7534Z" fill="white"/>
<path d="M14.75 41.75C14.75 42.1642 14.4142 42.5 14 42.5C13.5858 42.5 13.25 42.1642 13.25 41.75C13.25 41.3358 13.5858 41 14 41C14.4142 41 14.75 41.3358 14.75 41.75Z" fill="white"/>
<path d="M14.75 41.75C14.75 42.1642 14.4142 42.5 14 42.5C13.5858 42.5 13.25 42.1642 13.25 41.75C13.25 41.3358 13.5858 41 14 41C14.4142 41 14.75 41.3358 14.75 41.75Z" fill="white"/>
<path d="M15.6182 43.6794C15.6182 43.9555 15.3943 44.1794 15.1182 44.1794C14.842 44.1794 14.6182 43.9555 14.6182 43.6794C14.6182 43.4033 14.842 43.1794 15.1182 43.1794C15.3943 43.1794 15.6182 43.4033 15.6182 43.6794Z" fill="white"/>
<path d="M15.6182 43.6794C15.6182 43.9555 15.3943 44.1794 15.1182 44.1794C14.842 44.1794 14.6182 43.9555 14.6182 43.6794C14.6182 43.4033 14.842 43.1794 15.1182 43.1794C15.3943 43.1794 15.6182 43.4033 15.6182 43.6794Z" fill="white"/>
<path d="M17.4677 43.6794C17.4677 43.9555 17.2438 44.1794 16.9677 44.1794C16.6915 44.1794 16.4677 43.9555 16.4677 43.6794C16.4677 43.4033 16.6915 43.1794 16.9677 43.1794C17.2438 43.1794 17.4677 43.4033 17.4677 43.6794Z" fill="white"/>
<path d="M17.4677 43.6794C17.4677 43.9555 17.2438 44.1794 16.9677 44.1794C16.6915 44.1794 16.4677 43.9555 16.4677 43.6794C16.4677 43.4033 16.6915 43.1794 16.9677 43.1794C17.2438 43.1794 17.4677 43.4033 17.4677 43.6794Z" fill="white"/>
<path d="M19.1755 43.6794C19.1755 43.9555 18.9516 44.1794 18.6755 44.1794C18.3993 44.1794 18.1755 43.9555 18.1755 43.6794C18.1755 43.4033 18.3993 43.1794 18.6755 43.1794C18.9516 43.1794 19.1755 43.4033 19.1755 43.6794Z" fill="white"/>
<path d="M19.1755 43.6794C19.1755 43.9555 18.9516 44.1794 18.6755 44.1794C18.3993 44.1794 18.1755 43.9555 18.1755 43.6794C18.1755 43.4033 18.3993 43.1794 18.6755 43.1794C18.9516 43.1794 19.1755 43.4033 19.1755 43.6794Z" fill="white"/>
<path d="M21.0326 43.6794C21.0326 43.9555 20.8088 44.1794 20.5326 44.1794C20.2565 44.1794 20.0326 43.9555 20.0326 43.6794C20.0326 43.4033 20.2565 43.1794 20.5326 43.1794C20.8088 43.1794 21.0326 43.4033 21.0326 43.6794Z" fill="white"/>
<path d="M21.0326 43.6794C21.0326 43.9555 20.8088 44.1794 20.5326 44.1794C20.2565 44.1794 20.0326 43.9555 20.0326 43.6794C20.0326 43.4033 20.2565 43.1794 20.5326 43.1794C20.8088 43.1794 21.0326 43.4033 21.0326 43.6794Z" fill="white"/>
<path d="M22.7515 43.6777C22.7515 43.9539 22.5277 44.1777 22.2515 44.1777C21.9754 44.1777 21.7515 43.9539 21.7515 43.6777C21.7515 43.4016 21.9754 43.1777 22.2515 43.1777C22.5277 43.1777 22.7515 43.4016 22.7515 43.6777Z" fill="white"/>
<path d="M22.7515 43.6777C22.7515 43.9539 22.5277 44.1777 22.2515 44.1777C21.9754 44.1777 21.7515 43.9539 21.7515 43.6777C21.7515 43.4016 21.9754 43.1777 22.2515 43.1777C22.5277 43.1777 22.7515 43.4016 22.7515 43.6777Z" fill="white"/>
<path d="M16.75 41.7073C16.75 42.1215 16.4142 42.4573 16 42.4573C15.5858 42.4573 15.25 42.1215 15.25 41.7073C15.25 41.2931 15.5858 40.9573 16 40.9573C16.4142 40.9573 16.75 41.2931 16.75 41.7073Z" fill="white"/>
<path d="M16.75 41.7073C16.75 42.1215 16.4142 42.4573 16 42.4573C15.5858 42.4573 15.25 42.1215 15.25 41.7073C15.25 41.2931 15.5858 40.9573 16 40.9573C16.4142 40.9573 16.75 41.2931 16.75 41.7073Z" fill="white"/>
<path d="M18.75 41.7073C18.75 42.1215 18.4142 42.4573 18 42.4573C17.5858 42.4573 17.25 42.1215 17.25 41.7073C17.25 41.2931 17.5858 40.9573 18 40.9573C18.4142 40.9573 18.75 41.2931 18.75 41.7073Z" fill="white"/>
<path d="M18.75 41.7073C18.75 42.1215 18.4142 42.4573 18 42.4573C17.5858 42.4573 17.25 42.1215 17.25 41.7073C17.25 41.2931 17.5858 40.9573 18 40.9573C18.4142 40.9573 18.75 41.2931 18.75 41.7073Z" fill="white"/>
<path d="M20.75 41.7073C20.75 42.1215 20.4142 42.4573 20 42.4573C19.5858 42.4573 19.25 42.1215 19.25 41.7073C19.25 41.2931 19.5858 40.9573 20 40.9573C20.4142 40.9573 20.75 41.2931 20.75 41.7073Z" fill="white"/>
<path d="M20.75 41.7073C20.75 42.1215 20.4142 42.4573 20 42.4573C19.5858 42.4573 19.25 42.1215 19.25 41.7073C19.25 41.2931 19.5858 40.9573 20 40.9573C20.4142 40.9573 20.75 41.2931 20.75 41.7073Z" fill="white"/>
<path d="M17.75 35.75C17.75 36.4404 17.1904 37 16.5 37C15.8096 37 15.25 36.4404 15.25 35.75C15.25 35.0596 15.8096 34.5 16.5 34.5C17.1904 34.5 17.75 35.0596 17.75 35.75Z" fill="white"/>
<path d="M17.75 35.75C17.75 36.4404 17.1904 37 16.5 37C15.8096 37 15.25 36.4404 15.25 35.75C15.25 35.0596 15.8096 34.5 16.5 34.5C17.1904 34.5 17.75 35.0596 17.75 35.75Z" fill="white"/>
<path d="M14.1338 39C14.1338 39.5523 13.6861 40 13.1338 40C12.5815 40 12.1338 39.5523 12.1338 39C12.1338 38.4477 12.5815 38 13.1338 38C13.6861 38 14.1338 38.4477 14.1338 39Z" fill="white"/>
<path d="M14.1338 39C14.1338 39.5523 13.6861 40 13.1338 40C12.5815 40 12.1338 39.5523 12.1338 39C12.1338 38.4477 12.5815 38 13.1338 38C13.6861 38 14.1338 38.4477 14.1338 39Z" fill="white"/>
<path d="M16.866 39C16.866 39.5523 16.4182 40 15.8659 40C15.3137 40 14.8659 39.5523 14.8659 39C14.8659 38.4477 15.3137 38 15.8659 38C16.4182 38 16.866 38.4477 16.866 39Z" fill="white"/>
<path d="M16.866 39C16.866 39.5523 16.4182 40 15.8659 40C15.3137 40 14.8659 39.5523 14.8659 39C14.8659 38.4477 15.3137 38 15.8659 38C16.4182 38 16.866 38.4477 16.866 39Z" fill="white"/>
<path d="M19.5 39C19.5 39.5523 19.0523 40 18.5 40C17.9477 40 17.5 39.5523 17.5 39C17.5 38.4477 17.9477 38 18.5 38C19.0523 38 19.5 38.4477 19.5 39Z" fill="white"/>
<path d="M19.5 39C19.5 39.5523 19.0523 40 18.5 40C17.9477 40 17.5 39.5523 17.5 39C17.5 38.4477 17.9477 38 18.5 38C19.0523 38 19.5 38.4477 19.5 39Z" fill="white"/>
<path d="M30 25H32L33.5 26.5H30.5L30 25Z" fill="white"/>
</g>
<defs>
<clipPath id="clip0_227_673">
<rect width="64" height="64" fill="white"/>
</clipPath>
</defs>
</svg>
